<svg version="1.1" id="Layer_1" xmlns="http://www.w3.org/2000/svg" xmlns:xlink="http://www.w3.org/1999/xlink" x="0px" y="0px"
	 width="100%" viewBox="0 0 1024 1024" enable-background="new 0 0 1024 1024" xml:space="preserve">
<path fill="#000000" opacity="1.000000" stroke="none" 
	d="
M328.408752,196.566895 
	C329.145752,195.901703 329.737427,195.250076 330.245239,195.309921 
	C346.880890,197.270279 363.707977,198.164520 378.926453,206.574188 
	C395.771545,215.882721 407.346436,228.843704 409.958466,248.555069 
	C410.067627,249.378906 410.406769,250.248199 410.252838,251.019272 
	C408.630096,259.147675 412.935577,262.984192 419.916565,265.745209 
	C426.286346,268.264465 431.557190,272.786804 436.722595,277.283173 
	C437.302582,277.788025 438.142914,277.993774 439.311493,278.553131 
	C441.857422,274.098328 441.216461,269.245453 441.443115,264.859985 
	C442.182007,250.560837 445.577881,236.970428 450.813782,223.765686 
	C452.997986,218.257217 454.506897,212.707687 453.257355,206.755447 
	C452.947296,205.278473 453.176392,204.040253 454.394165,203.228989 
	C455.854919,202.255875 457.356354,202.749619 458.513947,203.827820 
	C472.738892,217.076767 485.030548,231.242218 486.541016,252.122101 
	C487.644531,267.376556 485.003998,281.154846 475.186768,293.178589 
	C471.299957,297.938995 466.502197,301.346130 460.653595,303.326447 
	C456.676422,304.673187 455.170776,307.017029 455.875793,311.687408 
	C458.623077,329.885498 460.884613,348.157959 463.209167,366.417725 
	C463.544830,369.054352 464.396332,370.354401 467.251556,370.115601 
	C493.420990,367.927155 518.502136,373.165222 543.211853,381.166107 
	C560.857788,386.879730 577.192688,394.896515 590.646545,407.899017 
	C608.110046,424.776642 616.471619,446.324066 621.323059,469.506653 
	C624.232300,483.407928 624.864685,497.530060 624.257629,511.685547 
	C624.096619,515.441101 625.897583,516.375488 629.030090,517.219482 
	C632.256409,518.088745 633.527710,516.798096 634.796204,514.226746 
	C645.186035,493.165161 659.063904,474.479309 674.256958,456.708527 
	C679.125244,451.014313 684.052124,445.367462 689.074707,439.809631 
	C690.420349,438.320557 692.129028,435.574982 694.317566,437.500305 
	C696.857544,439.734741 694.566101,442.000244 692.846985,443.847443 
	C681.714600,455.809052 671.214783,468.300507 661.779419,481.644653 
	C653.329895,493.594666 645.472229,505.919403 639.383850,519.123291 
	C640.594910,521.259705 642.600464,521.266846 644.233337,521.944763 
	C653.996277,525.997925 659.765991,532.821899 660.368896,543.808960 
	C661.364136,561.947266 661.472473,580.091675 661.276550,598.241455 
	C661.231995,602.375610 660.814941,606.552673 660.083008,610.622498 
	C658.676941,618.440491 654.530640,624.668457 647.330444,628.117310 
	C641.780518,630.775696 640.510010,634.873596 640.242371,640.546387 
	C639.044312,665.943298 637.845520,691.379639 628.336365,715.476318 
	C624.223389,725.899109 619.207336,735.810242 612.369995,744.749084 
	C608.915527,749.265198 609.516541,751.345520 615.097412,752.857910 
	C618.750305,753.847717 622.602661,754.125244 626.377136,754.637329 
	C630.857605,755.245117 634.468750,757.162720 637.379822,760.751099 
	C643.143799,767.856323 646.006104,768.234924 653.936401,763.490540 
	C664.651794,757.079895 672.109741,758.361633 679.378845,768.257202 
	C682.863281,773.000549 686.677246,774.848206 692.637878,772.897522 
	C700.212585,770.418579 707.907104,770.476074 715.525696,773.603455 
	C724.146362,777.142212 733.290039,775.704651 742.214355,775.482849 
	C755.337830,775.156738 768.447083,774.267761 781.564026,773.653259 
	C783.399353,773.567261 785.068115,773.327576 786.821228,772.493896 
	C790.584229,770.704468 794.003052,771.709290 796.580505,774.971008 
	C799.684875,778.899536 799.765625,784.907166 796.585999,788.315491 
	C793.705322,791.403442 790.231628,793.060242 785.853088,791.299377 
	C782.083862,789.783508 782.287109,786.057434 781.403259,783.021606 
	C765.996094,783.529541 750.888977,783.851807 735.802246,784.589905 
	C726.534180,785.043335 717.473694,784.475830 708.871582,780.875061 
	C705.555542,779.487061 702.564514,779.428955 699.248535,780.508606 
	C694.996826,781.892822 690.689819,783.299072 686.116272,782.906250 
	C679.322083,782.322754 675.208130,777.761230 671.345581,772.813538 
	C667.080261,767.349792 665.586731,767.079956 659.624084,770.413940 
	C646.364685,777.827698 641.413696,777.110962 630.675354,766.396362 
	C628.146851,763.873413 625.211426,762.212280 621.383240,762.255310 
	C616.648254,762.308533 612.061951,761.353088 608.308105,758.213074 
	C604.906555,755.367798 602.181824,755.738647 599.617920,759.314087 
	C598.024109,761.536621 595.221680,762.952820 595.046509,766.352600 
	C598.249634,768.574341 601.768127,767.619080 605.129089,767.348389 
	C611.085388,766.868713 617.019714,766.121643 622.971680,765.578979 
	C625.003662,765.393677 627.229492,765.465698 627.929077,767.896118 
	C628.743286,770.724365 626.333191,771.513306 624.484436,772.601990 
	C620.993774,774.657654 617.061218,774.294556 613.286133,774.592712 
	C603.795654,775.342346 594.149109,778.173401 585.042358,772.686768 
	C583.240906,771.601440 581.548523,772.659729 579.897278,773.557068 
	C562.869812,782.809875 544.343140,785.981506 525.283020,787.432556 
	C510.963715,788.522705 496.651306,788.390137 482.332489,788.299866 
	C463.283569,788.179749 444.241791,786.682983 426.637970,778.977417 
	C390.993378,763.375061 369.019135,735.874390 359.770935,698.269165 
	C356.193970,683.724426 354.686096,668.841614 354.593353,653.822876 
	C354.558472,648.174255 353.909332,642.530945 353.596100,636.882019 
	C353.402802,633.396545 351.927490,631.030762 348.554352,629.621521 
	C337.314667,624.925720 333.297241,615.762451 332.594971,604.213562 
	C331.561523,587.219360 332.931519,570.310547 333.737610,553.377991 
	C333.934631,549.239258 334.602142,545.123779 335.027252,540.994873 
	C336.630005,525.428650 348.639496,520.873413 360.902740,516.851440 
	C368.015503,514.518677 367.719330,514.369812 367.194000,506.698029 
	C364.398987,465.879547 369.871460,427.441406 400.968872,397.040131 
	C413.145721,385.135834 427.674896,377.315613 444.191437,373.179016 
	C446.288422,372.653839 448.386536,372.120178 450.452423,371.487122 
	C452.888458,370.740570 453.876373,369.072876 453.473663,366.512177 
	C452.598450,360.947632 451.596344,355.393738 450.987335,349.798401 
	C449.484863,335.994202 440.120514,329.521149 428.330048,325.545135 
	C420.337402,322.849792 411.932556,323.158325 403.601593,323.346375 
	C400.575897,323.414673 398.421295,324.686646 397.602325,327.636078 
	C393.663055,341.823334 383.217529,350.192932 370.964661,356.467041 
	C352.070129,366.142059 331.635101,368.279022 310.740631,367.193878 
	C308.135101,367.058563 304.812134,366.724335 306.059479,362.644958 
	C313.415131,338.588379 325.469757,318.091278 349.149872,306.559082 
	C359.051910,301.736786 369.373901,300.173981 380.190094,302.687500 
	C385.509766,303.923737 390.292847,306.282227 393.864929,310.454865 
	C396.196777,313.178711 398.908295,313.798370 402.267242,313.696045 
	C413.432648,313.356110 424.607727,313.208466 435.212280,317.615326 
	C437.508820,318.569702 439.755371,319.652557 441.986847,320.753479 
	C445.662598,322.566864 446.771301,321.919952 446.669647,317.765411 
	C446.348877,304.655945 440.464355,294.115387 431.141510,285.385681 
	C425.158142,279.783020 418.356812,275.243866 410.773621,271.992554 
	C409.117828,271.282623 407.464905,270.290009 405.577087,271.447113 
	C393.573090,278.804688 381.896362,275.079041 371.016846,269.310028 
	C352.561157,259.523590 341.598846,243.260498 334.902649,223.892059 
	C331.866486,215.110199 329.007202,206.262161 328.408752,196.566895 
M463.471069,534.818787 
	C468.414520,526.887756 473.240112,532.380066 478.018402,535.446655 
	C479.430695,533.949158 480.521881,532.712952 481.697510,531.563171 
	C483.695831,529.608704 486.198395,528.805237 488.478424,530.521851 
	C493.577850,534.361023 496.277100,531.478394 498.755554,527.352051 
	C500.955780,523.688904 503.860657,520.976746 508.469208,521.826599 
	C513.011108,522.664124 513.308594,526.797363 514.237732,530.280640 
	C514.641846,531.795471 513.904419,533.843994 516.109070,534.447876 
	C517.971558,534.958069 518.628601,533.223633 519.678711,532.240967 
	C524.431885,527.792786 528.699890,528.699280 531.101257,534.905457 
	C531.814453,536.748535 532.556396,537.666687 534.563599,537.668762 
	C537.000916,537.671326 539.437988,537.916443 541.914307,538.058899 
	C542.379211,537.208862 542.771301,536.483093 543.171570,535.761780 
	C545.860474,530.916321 548.985535,527.207275 555.479431,529.465027 
	C558.120667,530.383362 559.171753,528.103027 560.028992,525.953613 
	C563.686646,516.782166 565.409790,515.947510 574.207336,518.988525 
	C576.549194,516.434326 578.914612,513.790039 583.074829,515.367310 
	C584.525635,515.917358 585.632080,514.851440 586.496460,513.818604 
	C588.495911,511.429474 591.159180,511.405029 593.835632,511.800354 
	C598.424988,512.478149 603.000793,513.269409 607.556152,514.148865 
	C613.286377,515.255127 614.431580,514.399170 614.651917,508.657440 
	C615.203186,494.292114 613.889893,480.092468 610.593201,466.111450 
	C602.540161,431.958588 583.923706,406.654694 550.047607,394.197327 
	C530.651550,387.064728 510.964325,381.427582 490.164978,379.984863 
	C473.913208,378.857544 457.738373,379.080780 442.231445,384.011871 
	C404.501892,396.009583 385.841461,424.050537 378.535889,462.104187 
	C391.200745,443.989624 404.101715,439.859344 416.187012,449.571350 
	C426.870758,458.156982 427.918701,475.551758 418.409058,486.236053 
	C413.923553,491.275543 408.008911,493.877808 401.581757,493.849731 
	C390.065674,493.799469 382.008453,487.828156 377.847687,476.381256 
	C377.009155,477.623993 376.535004,478.003754 376.509674,478.411377 
	C375.836121,489.244171 376.572357,500.040863 377.546265,510.818726 
	C377.773132,513.329590 379.262817,514.420593 382.099396,513.931152 
	C386.017670,513.255005 390.021393,513.055298 393.994263,512.719543 
	C397.644012,512.411072 400.079712,514.031189 401.177368,517.545654 
	C401.518463,518.637695 401.516846,519.905640 403.228821,520.411316 
	C404.220703,520.354065 404.971771,519.426147 405.828461,518.664307 
	C411.829590,513.327515 416.035706,514.503601 418.377747,522.309631 
	C419.474915,525.966492 421.284393,525.617004 423.912842,523.901306 
	C430.293365,519.736450 433.075348,520.382019 437.465973,526.781250 
	C438.956238,528.953308 440.188812,531.411499 443.183868,531.999146 
	C443.605103,531.679810 444.072876,531.449524 444.370239,531.081543 
	C450.413422,523.601929 452.956512,523.844177 457.960754,532.247192 
	C459.016205,534.019470 459.978943,536.350342 463.471069,534.818787 
M645.473816,616.958191 
	C649.227722,613.382568 650.540039,608.742310 650.590698,603.831604 
	C650.735107,589.840210 650.706970,575.845703 650.581848,561.853882 
	C650.555908,558.955933 649.817993,556.064270 649.348328,552.746704 
	C644.292786,555.076843 640.092346,557.756531 635.387268,559.439941 
	C608.507080,569.057129 580.477478,572.410828 552.269165,574.177551 
	C528.205994,575.684692 504.115051,576.342346 479.940186,575.631470 
	C450.321686,574.760559 420.864258,573.179321 391.769897,567.301819 
	C377.424164,564.403748 363.213501,560.967346 349.989502,554.428955 
	C345.325531,552.122925 343.704498,552.850586 343.506165,558.129517 
	C343.181030,566.783447 343.209381,575.451050 342.856750,584.103455 
	C342.544556,591.763428 342.957214,599.388428 343.332367,607.025879 
	C343.552063,611.498657 345.492065,614.972412 348.996857,617.650757 
	C352.083038,620.009277 355.615143,621.457275 359.260437,622.678284 
	C387.711121,632.207520 417.372375,634.731934 446.942078,637.602051 
	C475.155182,640.340454 503.446136,640.218567 531.721924,638.571960 
	C539.167114,638.138245 546.639038,637.850220 554.012390,636.230957 
	C556.524353,635.679382 558.247681,633.772034 561.343079,633.931763 
	C568.731873,634.312927 576.176880,634.405457 583.633118,633.834656 
	C588.658508,633.449890 592.778931,630.264343 597.938904,630.542480 
	C604.425293,630.892029 610.669617,628.859497 616.982300,627.620483 
	C626.830261,625.687622 636.411438,623.034180 645.473816,616.958191 
M360.390381,542.161987 
	C355.784973,537.918457 356.034271,535.799194 361.524475,533.216248 
	C362.867126,532.584534 364.364197,532.285583 365.722107,531.680725 
	C367.416840,530.925781 370.179138,530.757629 369.411499,527.986511 
	C368.637360,525.191895 366.004944,524.919678 363.659241,525.575012 
	C359.012299,526.873108 354.551666,528.708252 350.642609,531.636658 
	C345.023621,535.846069 344.901276,540.080322 350.781647,543.773438 
	C360.508301,549.882202 371.282227,553.224365 382.610291,555.066345 
	C383.693939,551.661743 381.133240,551.153748 379.494141,550.806702 
	C372.703796,549.369202 366.876740,545.956360 360.390381,542.161987 
M648.070862,536.537109 
	C645.999756,533.121948 642.862427,531.076660 639.285034,529.512390 
	C635.600525,527.901306 633.264038,528.557495 632.743774,532.871460 
	C640.130554,538.500793 640.084167,539.365051 632.053833,544.410645 
	C626.829773,547.692993 621.625427,551.037781 614.512451,551.552429 
	C616.749390,553.500732 618.279541,554.658569 620.191162,554.118958 
	C628.787415,551.692505 637.458313,549.384521 644.902588,544.130554 
	C647.234070,542.485046 649.527832,540.652466 648.070862,536.537109 
M382.773956,526.456970 
	C384.549103,527.133057 386.211090,528.301331 388.580963,527.959167 
	C388.104370,525.318665 388.453094,522.217407 385.366364,521.796143 
	C383.000031,521.473206 382.571564,524.026672 382.773956,526.456970 
M623.990540,531.072205 
	C627.664551,531.178528 626.846191,527.833618 628.228760,526.044800 
	C625.452209,524.305237 623.521118,525.689209 622.022644,527.380798 
	C620.584473,529.004272 622.169617,529.963989 623.990540,531.072205 
M583.282227,561.289612 
	C583.418579,561.195557 583.612793,561.129211 583.674744,560.999634 
	C583.735474,560.872498 583.719177,560.577881 583.638489,560.532837 
	C580.387817,558.720032 577.353882,559.321838 573.274963,561.451782 
	C577.223267,562.177185 579.959717,560.483643 583.282227,561.289612 
M531.622192,565.223816 
	C534.172241,565.693176 536.707825,565.992554 539.570679,564.737427 
	C534.050964,562.980408 534.050964,562.980408 531.622192,565.223816 
M464.143280,563.067688 
	C462.468292,563.183472 460.783691,563.278748 459.235107,565.120605 
	C462.261688,565.755737 464.502075,565.720154 467.256866,563.945801 
	C465.936951,563.490601 465.358978,563.291260 464.143280,563.067688 
z"/>
<path fill="#000000" opacity="1.000000" stroke="none" 
	d="
M518.289551,470.800659 
	C516.306885,489.328583 498.045227,498.173462 483.176300,491.172668 
	C473.299042,486.522095 467.581879,474.794281 469.907288,464.111511 
	C472.196442,453.595001 482.105133,445.073029 492.498108,444.682343 
	C503.793945,444.257721 514.047424,451.427460 517.105835,462.024872 
	C517.884155,464.721924 518.630493,467.479675 518.289551,470.800659 
z"/>
<path fill="#000000" opacity="1.000000" stroke="none" 
	d="
M436.997253,473.888916 
	C439.252167,476.879486 440.636780,481.091064 444.872833,480.154205 
	C449.549469,479.119904 451.573486,475.104156 452.604279,470.624969 
	C453.220184,467.948608 452.542511,463.427948 456.875793,464.338013 
	C461.092194,465.223572 459.474335,469.651093 459.031311,472.452850 
	C457.743286,480.597809 452.216339,485.968048 445.515839,486.300323 
	C437.935852,486.676239 431.623962,481.685089 429.379425,473.496429 
	C428.898254,471.740906 428.596039,469.936279 428.113495,468.181183 
	C427.512756,465.996155 428.309235,464.556152 430.396606,463.947571 
	C432.591278,463.307678 433.859894,464.463959 434.513214,466.478424 
	C435.279633,468.841614 436.044037,471.205414 436.997253,473.888916 
z"/>
<style>
	path { fill: #000; }
        @media (prefers-color-scheme: dark) {
            path { fill: white; }
        }
</style>
</svg>